<?xml version="1.0" encoding="UTF-8"?>
<!DOCTYPE svg PUBLIC "-//W3C//DTD SVG 1.1//EN" "http://www.w3.org/Graphics/SVG/1.1/DTD/svg11.dtd">
<!-- Creator: CorelDRAW -->
<svg xmlns="http://www.w3.org/2000/svg" xml:space="preserve" width="67.7332mm" height="67.7332mm" version="1.1" style="shape-rendering:geometricPrecision; text-rendering:geometricPrecision; image-rendering:optimizeQuality; fill-rule:evenodd; clip-rule:evenodd"
viewBox="0 0 6773.32 6773.32"
 xmlns:xlink="http://www.w3.org/1999/xlink"
 xmlns:xodm="http://www.corel.com/coreldraw/odm/2003">
 <defs>
  <style type="text/css">
   <![CDATA[
    .str0 {stroke:black;stroke-width:33.87;stroke-miterlimit:22.9256}
    .fil2 {fill:none}
    .fil1 {fill:#0A111B}
    .fil0 {fill:#F5BD63}
   ]]>
  </style>
 </defs>
 <g id="Layer_x0020_1">
  <metadata id="CorelCorpID_0Corel-Layer"/>
  <g id="_2143510944448">
   <circle class="fil0" cx="4573.29" cy="3237.96" r="634.6"/>
   <g>
    <g>
     <path class="fil1" d="M4232.12 2681.07c84.91,-3.3 164.55,10.37 236.14,39.61 38.42,15.69 101.56,49.08 133.25,76.81l18.81 15.66c3.63,2.84 6.53,4.33 9.93,7.44 27.65,25.32 52.31,51.89 74.92,81.85 65.02,86.16 105.37,189.99 111.91,305.48 7.1,125.21 -31.01,255.17 -102.28,352.61 -17.68,24.17 -42.15,54.68 -63.81,75.75l-46.03 40.26c-23.02,18.74 -66.46,45.66 -96.23,60.65 -63.99,32.2 -138.28,53.85 -219.9,58 -141.67,7.22 -262.84,-35.94 -370.14,-116.34 -39.64,-29.7 -73.57,-65.87 -103.73,-104.86 -3.3,-4.25 -4.89,-7.18 -7.68,-11.06l-20.95 -30.83c-93.26,-151.09 -111.03,-336.81 -43.25,-503.06 7.11,-17.45 14.34,-32.08 22.3,-48.18 3.57,-7.22 8.06,-15.12 12.19,-22.36 13.27,-23.22 49.11,-75 65.8,-91.01l62.5 -59.78c3.96,-3.6 5.82,-4.83 9.65,-7.64 35.28,-25.84 50.88,-38.5 95.79,-61.01 63.27,-31.71 139.86,-54.84 220.81,-57.99zm-1.03 -68.21c-131.59,4.62 -272.72,60.14 -367.63,140.9 -34.08,29.01 -58.56,54.03 -87.8,87.77 -36.58,42.23 -74.43,110.07 -95.07,159.62 -32.84,78.84 -49.59,172.22 -45.75,266.44 3.73,91.51 28.79,176.36 64.18,248.16 22.58,45.82 28.65,49.91 51.12,85.6 2.76,4.4 5.39,7.78 8.48,11.64 20.93,26.15 49.76,61.86 74.02,82.82l42.2 35.55c197.67,159.85 497.5,176.42 712.9,40.26 31.58,-19.97 42.34,-28.2 68.69,-49.27l41.65 -36.13c7.14,-6.87 13.12,-13.07 19.69,-20.54 54.34,-61.82 88.31,-110.4 121.78,-190.5 68.93,-164.99 59.69,-355.68 -18.32,-514.66 -8.81,-17.95 -17.89,-33.58 -27.69,-50 -8.76,-14.69 -29.18,-44.65 -40.32,-57.54l-17.39 -21.45c-3.57,-4.86 -5.87,-6.26 -9.51,-10.62 -12.58,-15.07 -23.72,-27.62 -38.61,-40.54l-42.24 -35.51c-38.68,-32 -100.1,-66.39 -148.33,-86.22 -80.57,-33.12 -169.92,-49.15 -266.05,-45.78z"/>
     <path class="fil1" d="M4575.29 3248.25c3.36,-10.29 1.06,-19.69 -3.64,-28.05 -5.24,-9.32 -7.99,-9.14 -18.01,-15.16 -13.83,-8.3 -27.23,-15.97 -41.95,-24.24 -84.47,-47.47 -167.3,-97.66 -251.72,-145.39l-126.8 -73.23c-17.66,-10.5 -37.34,-5.42 -46.67,7.5 -10.33,14.3 -7.02,38.69 -7.02,58.43 0,46.12 -1.65,451.15 0.53,463.69 2.83,16.17 17.65,30.04 37.35,27.93 11.09,-1.18 34.3,-16.31 43.95,-22.03 27.71,-16.42 55.85,-32.81 83.91,-48.46 56.86,-31.71 112.23,-65.74 168.78,-97.41l125.89 -72.68c15.87,-9.11 29.78,-13.72 35.4,-30.9z"/>
     <g>
      <line class="fil2 str0" x1="3862.54" y1="3075.28" x2="4035.69" y2= "3018.33" />
      <line class="fil2 str0" x1="3862.54" y1="3202.91" x2="4035.69" y2= "3145.95" />
      <line class="fil2 str0" x1="3862.54" y1="3330.53" x2="4035.69" y2= "3273.58" />
      <line class="fil2 str0" x1="3862.54" y1="3458.15" x2="4035.69" y2= "3401.2" />
     </g>
    </g>
    <g>
     <path class="fil1" d="M4232.79 2694.44c82.87,-3.23 160.6,10.12 230.48,38.66 37.49,15.31 99.12,47.89 130.05,74.96l18.36 15.28c3.54,2.78 6.37,4.23 9.69,7.27 26.98,24.71 51.05,50.64 73.12,79.89 63.46,84.08 102.85,185.42 109.23,298.14 6.92,122.21 -30.27,249.05 -99.84,344.15 -17.25,23.59 -41.13,53.36 -62.27,73.93l-44.93 39.29c-22.46,18.3 -64.86,44.57 -93.92,59.19 -62.45,31.43 -134.96,52.57 -214.62,56.62 -138.27,7.04 -256.53,-35.08 -361.26,-113.55 -38.69,-28.99 -71.8,-64.29 -101.24,-102.34 -3.22,-4.16 -4.77,-7.01 -7.5,-10.8l-20.44 -30.09c-91.02,-147.47 -108.36,-328.72 -42.22,-490.99 6.95,-17.03 14.01,-31.3 21.78,-47.02 3.48,-7.04 7.86,-14.76 11.89,-21.82 12.96,-22.67 47.93,-73.2 64.22,-88.83l61 -58.35c3.86,-3.51 5.68,-4.71 9.42,-7.45 34.43,-25.22 49.66,-37.58 93.49,-59.55 61.75,-30.95 136.51,-53.52 215.51,-56.59zm-1.01 -66.58c-128.43,4.51 -266.17,58.69 -358.8,137.52 -33.27,28.31 -57.15,52.73 -85.69,85.67 -35.71,41.21 -72.64,107.42 -92.79,155.78 -32.06,76.95 -48.4,168.09 -44.65,260.05 3.64,89.31 28.09,172.13 62.63,242.2 22.05,44.72 27.97,48.71 49.89,83.55 2.7,4.29 5.27,7.59 8.29,11.36 20.42,25.52 48.56,60.37 72.24,80.83l41.18 34.7c192.94,156.01 485.57,172.19 695.8,39.29 30.82,-19.49 41.32,-27.52 67.04,-48.08l40.65 -35.26c6.97,-6.72 12.81,-12.76 19.22,-20.06 53.03,-60.33 86.19,-107.74 118.86,-185.93 67.27,-161.02 58.25,-347.14 -17.89,-502.3 -8.6,-17.52 -17.46,-32.77 -27.02,-48.81 -8.55,-14.33 -28.48,-43.57 -39.35,-56.16l-16.97 -20.92c-3.49,-4.75 -5.73,-6.11 -9.29,-10.37 -12.28,-14.71 -23.15,-26.96 -37.68,-39.57l-41.22 -34.66c-37.76,-31.23 -97.7,-64.79 -144.78,-84.14 -78.64,-32.33 -165.84,-47.98 -259.67,-44.69z"/>
     <path class="fil1" d="M4567.72 3248c3.29,-10.04 1.04,-19.21 -3.55,-27.38 -5.11,-9.09 -7.79,-8.91 -17.58,-14.79 -13.49,-8.1 -26.57,-15.59 -40.94,-23.66 -82.44,-46.33 -163.28,-95.31 -245.68,-141.9l-123.75 -71.47c-17.23,-10.25 -36.45,-5.29 -45.55,7.32 -10.09,13.95 -6.86,37.76 -6.86,57.02 0,45.02 -1.61,440.33 0.53,452.56 2.75,15.79 17.22,29.32 36.45,27.27 10.82,-1.16 33.47,-15.92 42.89,-21.5 27.05,-16.03 54.51,-32.02 81.9,-47.3 55.49,-30.95 109.54,-64.17 164.73,-95.08l122.86 -70.93c15.5,-8.89 29.07,-13.39 34.55,-30.16z"/>
     <g>
      <line class="fil2 str0" x1="3872.08" y1="3079.18" x2="4041.07" y2= "3023.6" />
      <line class="fil2 str0" x1="3872.08" y1="3203.75" x2="4041.07" y2= "3148.16" />
      <line class="fil2 str0" x1="3872.08" y1="3328.31" x2="4041.07" y2= "3272.72" />
      <line class="fil2 str0" x1="3872.08" y1="3452.87" x2="4041.07" y2= "3397.28" />
     </g>
    </g>
   </g>
  </g>
 </g>
</svg>
